Coordinates
version=1
nRows=14
nColumns=36
inDegrees=yes

Units are S.I. units (second, meters, Newtons, ...)
If the header above contains a line with 'inDegrees', this indicates whether rotational values are in degrees (yes) or radians (no).

endheader
time	pelvis_tilt	pelvis_list	pelvis_rotation	pelvis_tx	pelvis_ty	pelvis_tz	hip_flexion_r	hip_adduction_r	hip_rotation_r	knee_angle_r	knee_angle_r_beta	ankle_angle_r	subtalar_angle_r	mtp_angle_r	hip_flexion_l	hip_adduction_l	hip_rotation_l	knee_angle_l	knee_angle_l_beta	ankle_angle_l	subtalar_angle_l	mtp_angle_l	lumbar_extension	lumbar_bending	lumbar_rotation	arm_flex_r	arm_add_r	arm_rot_r	elbow_flex_r	pro_sup_r	arm_flex_l	arm_add_l	arm_rot_l	elbow_flex_l	pro_sup_l
      2.33750000	    -12.55065834	      0.90451840	     -0.55300380	      0.34401348	      1.12493192	     -0.03855743	     14.44575144	     -9.78496517	    -18.56636504	      1.97087559	      0.03439827	    -33.30296371	     10.77924885	     -7.49999987	     18.10171509	     -7.73743668	    -12.63164172	      3.69489809	      0.06448814	    -40.73049036	      6.42972412	     -7.49999987	     -3.52492000	      0.70792996	     -0.38379074	    163.91586988	      5.66408355	     80.91725129	     11.07265761	     47.02628450	    163.43440557	     -2.02009756	     81.16555326	     12.18794183	     48.98720712
      2.34166670	    -12.70035638	      0.99895620	     -0.62621686	      0.34206572	      1.13315247	     -0.03669272	     14.43836136	     -9.39604568	    -19.54416223	      1.31761753	      0.02299676	    -32.39054449	      9.04946600	     -7.49999987	     17.90425339	     -7.74371872	    -13.05572343	      2.46166271	      0.04296412	    -40.07504854	      5.59534965	     -7.49999987	     -3.15266216	      0.41338641	     -0.28093189	    163.97276775	      5.93838606	     80.56361958	     10.80910798	     47.89835239	    163.45873449	     -1.98018471	     80.72606530	     12.08989472	     49.53676166
      2.34583330	    -12.92963771	      0.88998891	     -0.51202073	      0.34376243	      1.14071913	     -0.03518084	     14.49347878	     -8.85285126	    -20.69147536	      0.90687703	      0.01582799	    -31.62546845	      7.16624448	     -7.49999987	     17.84100286	     -7.83808365	    -14.54834410	      1.39433367	      0.02433571	    -39.06331458	      3.93188748	     -7.49999987	     -2.55868361	      0.27648905	     -0.57034849	    164.02985133	      6.17719286	     80.61389041	     10.53143062	     47.89972926	    163.48628893	     -1.79257109	     80.89304503	     11.88299745	     49.52923620
      2.35000000	    -13.22682480	      0.88958557	     -0.38523178	      0.34598639	      1.14940808	     -0.03616061	     14.68428554	     -8.46374554	    -22.46059536	      0.68395409	      0.01193725	    -31.45535898	      5.14659678	     -7.49999987	     17.95417284	     -7.65386568	    -16.52741514	      0.68953354	      0.01203463	    -37.70388476	      2.13968513	     -7.49999987	     -1.84324937	     -0.00671824	     -0.78528376	    163.99345782	      6.24427214	     79.74747513	     10.22714889	     48.95058854	    163.41887254	     -1.25102975	     80.26331077	     11.28822315	     50.44607015
      2.35416670	    -13.60082342	      0.79439637	     -0.29845900	      0.34399362	      1.15942154	     -0.03726179	     15.09892364	     -8.02142729	    -24.10133734	      0.61780496	      0.01078273	    -31.64292537	      3.26916062	     -7.49999987	     18.37008048	     -7.53950994	    -18.80368874	      0.39915547	      0.00696658	    -36.51940191	      0.21415898	     -7.49999987	     -1.26187269	     -0.16379615	     -0.79098811	    164.30693593	      6.02418845	     80.04806208	     10.28224720	     50.31788079	    163.61803119	     -0.75738129	     80.76798535	     10.91265237	     51.59167985
      2.35833330	    -13.94199768	      0.61539704	     -0.11142594	      0.34288466	      1.17042152	     -0.03690415	     15.47015082	     -7.49518454	    -25.63011997	      0.58738457	      0.01025179	    -32.36239991	      1.92038867	     -7.49999987	     18.84363593	     -7.45995307	    -20.85883430	      0.28182500	      0.00491877	    -36.34979040	     -1.59361243	     -7.49999987	     -0.75391298	     -0.20065069	     -0.67928382	    164.55552504	      5.83559762	     79.96910621	     10.32906297	     50.48189941	    163.58336625	     -0.22812816	     80.40348783	     10.49779560	     51.58079071
      2.36250000	    -14.21724960	      0.46202397	      0.20073605	      0.34360063	      1.17659527	     -0.03527400	     15.65024474	     -6.92309113	    -26.37890458	      0.55768248	      0.00973340	    -32.96695335	      1.12068433	     -7.49999987	     19.23259258	     -7.42483249	    -22.58132691	      0.23813429	      0.00415623	    -36.62287498	     -3.01718277	     -7.49999987	     -0.31639471	     -0.28141844	     -0.50391104	    164.93964199	      5.54201062	     80.13476450	     10.50618176	     50.74999054	    163.65970980	      0.28566902	     80.09906795	     10.32518051	     51.60655216
      2.36666670	    -14.47844281	      0.28460731	      0.43276079	      0.34298076	      1.18540999	     -0.03660486	     15.79912597	     -6.35351826	    -26.75864400	      0.60563167	      0.01057027	    -33.20253111	      0.64312193	     -7.49999987	     19.49269907	     -7.34806557	    -23.87634360	      0.22497010	      0.00392647	    -36.67487390	     -4.06769411	     -7.49999987	      0.12865009	     -0.30392075	     -0.31311595	    165.25446960	      5.23721027	     79.96591590	     10.65943374	     51.84942105	    163.67595789	      0.86871333	     78.94045850	      9.89713947	     52.27895677
      2.37083330	    -14.58550686	      0.23915421	      0.54539345	      0.34409125	      1.19822435	     -0.03494018	     15.78528683	     -5.91625769	    -26.97722911	      0.67937925	      0.01185740	    -34.34470239	      0.58813584	     -7.49999987	     19.48514778	     -7.25484494	    -24.93406468	      0.23339341	      0.00407348	    -37.37555525	     -4.84258874	     -7.49999987	      0.38450422	     -0.38592397	     -0.05730702	    165.63478180	      4.97135720	     80.49097041	     11.00352493	     52.10151389	    163.74441753	      1.19047567	     78.58855707	      9.84780895	     52.25421262
      2.37500000	    -14.67012616	      0.08188733	      0.53843487	      0.34516084	      1.20637480	     -0.03538898	     15.72367495	     -5.33972535	    -26.91824833	      0.81071117	      0.01414958	    -35.36500306	      0.57165472	     -7.49999987	     19.40806911	     -7.26016677	    -25.63172989	      0.25343411	      0.00442326	    -37.79998377	     -5.15087530	     -7.49999987	      0.64607226	     -0.32423504	      0.09584388	    166.02042333	      4.78875368	     81.02519059	     11.19698629	     52.31030880	    163.92184924	      1.50618718	     78.33958793	      9.81964073	     52.22007297
      2.37916670	    -14.66931703	      0.04776027	      0.42856428	      0.34361343	      1.21287132	     -0.03360142	     15.65366119	     -4.88082856	    -26.59972187	      0.86368857	      0.01507421	    -36.53246693	      0.46100834	     -7.49999987	     19.25265588	     -7.25841232	    -25.58786517	      0.31852372	      0.00555929	    -38.46115072	     -5.35734379	     -7.49999987	      0.69004091	     -0.34575902	      0.36327537	    166.38927539	      4.78208322	     81.16862014	     11.19304636	     52.62347153	    164.39026568	      1.63689144	     77.93422489	      9.86694852	     52.37467255
      2.38333330	    -14.69214613	     -0.02488853	      0.55242504	      0.34550822	      1.21834198	     -0.03576222	     15.56349077	     -4.62713381	    -26.07441808	      1.12550310	      0.01964373	    -37.37819967	      0.59346406	     -7.49999987	     19.20254120	     -7.11230092	    -25.48639459	      0.44889927	      0.00783477	    -39.33029439	     -5.59014107	     -7.49999987	      0.80615985	     -0.28444677	      0.33107604	    166.83579027	      4.75157790	     81.40014620	     11.20289654	     52.89945344	    164.87153380	      1.74569963	     77.59417335	      9.85574961	     52.48503877
      2.38750000	    -14.67822250	     -0.06201741	      0.67616537	      0.34710870	      1.23069430	     -0.03683787	     15.47506408	     -4.49075285	    -25.34780721	      1.46406611	      0.02555277	    -38.13244741	      1.13564635	     -7.49999987	     19.12866342	     -6.92878916	    -25.26064871	      0.71204228	      0.01242748	    -40.08316045	     -5.47186135	     -7.49999987	      0.92742802	     -0.13293492	      0.16483855	    167.12753103	      4.91927084	     81.50358280	     11.28464995	     53.02103073	    165.18669268	      1.72921522	     77.14698704	      9.86489310	     52.47315813
      2.39166670	    -14.65212423	     -0.10627751	      0.75395279	      0.34696099	      1.24139056	     -0.03425501	     15.36667151	     -4.25406282	    -24.21432702	      1.76528985	      0.03081012	    -38.54280807	      1.88056401	     -7.49999987	     19.11162246	     -6.87360348	    -24.27620485	      1.20810063	      0.02108533	    -40.34999918	     -4.86690081	     -7.49999987	      0.96665440	     -0.06375487	     -0.06952236	    167.42431024	      5.17329627	     80.91858942	     11.40303215	     54.03215798	    165.44825019	      1.69263792	     75.98670023	     10.06830282	     53.45908313
